<mxfile host="app.diagrams.net" modified="2024-04-17T09:18:05.585Z" agent="Mozilla/5.0 (X11; Linux x86_64) AppleWebKit/537.36 (KHTML, like Gecko) Chrome/121.0.0.0 Safari/537.36" version="24.0.0" etag="UhYWypoCvzQNAnq-e-ld" type="github">
  <diagram name="Page-1" id="1qut9SB8FUUtURea2GPt">
    <mxGraphModel>
      <root>
        <mxCell id="0" />
        <mxCell id="1" parent="0" />
      </root>
    </mxGraphModel>
  </diagram>
</mxfile>
